<svg xmlns="http://www.w3.org/2000/svg" xmlns:xlink="http://www.w3.org/1999/xlink" width="186" zoomAndPan="magnify" viewBox="0 0 139.5 209.249995" height="279" preserveAspectRatio="xMidYMid meet" version="1.0"><defs><g/><clipPath id="388ab68f5a"><path d="M 0 0 L 139 0 L 139 208.503906 L 0 208.503906 Z M 0 0 " clip-rule="nonzero"/></clipPath></defs><g clip-path="url(#388ab68f5a)"><path fill="#ffffff" d="M 0 0 L 139.5 0 L 139.5 209.25 L 0 209.25 Z M 0 0 " fill-opacity="1" fill-rule="nonzero"/><path fill="#fffff0" d="M 0 0 L 139.5 0 L 139.5 209.25 L 0 209.25 Z M 0 0 " fill-opacity="1" fill-rule="nonzero"/></g><path fill="#000000" d="M 23.261719 23.261719 L 116.386719 23.261719 L 116.386719 69.824219 L 107.074219 69.824219 L 107.074219 32.574219 L 32.574219 32.574219 L 32.574219 77.210938 L 55.855469 53.929688 L 81.066406 79.136719 L 74.480469 85.722656 L 55.855469 67.097656 L 32.574219 90.378906 L 32.574219 107.074219 L 69.824219 107.074219 L 69.824219 116.386719 L 23.261719 116.386719 Z M 86.339844 46.542969 C 86.035156 46.542969 85.730469 46.574219 85.433594 46.632812 C 85.132812 46.691406 84.839844 46.78125 84.558594 46.898438 C 84.277344 47.015625 84.007812 47.160156 83.753906 47.328125 C 83.5 47.5 83.265625 47.691406 83.046875 47.90625 C 82.832031 48.125 82.640625 48.359375 82.46875 48.613281 C 82.300781 48.867188 82.15625 49.136719 82.039062 49.417969 C 81.921875 49.699219 81.832031 49.992188 81.773438 50.292969 C 81.714844 50.589844 81.683594 50.894531 81.683594 51.199219 C 81.683594 51.503906 81.714844 51.808594 81.773438 52.109375 C 81.832031 52.410156 81.921875 52.699219 82.039062 52.980469 C 82.15625 53.265625 82.300781 53.53125 82.46875 53.785156 C 82.640625 54.042969 82.832031 54.277344 83.046875 54.492188 C 83.265625 54.707031 83.5 54.902344 83.753906 55.070312 C 84.007812 55.242188 84.277344 55.386719 84.558594 55.5 C 84.839844 55.617188 85.132812 55.707031 85.433594 55.765625 C 85.730469 55.828125 86.035156 55.855469 86.339844 55.855469 C 86.644531 55.855469 86.949219 55.828125 87.25 55.765625 C 87.550781 55.707031 87.839844 55.617188 88.121094 55.5 C 88.40625 55.386719 88.671875 55.242188 88.925781 55.070312 C 89.183594 54.902344 89.417969 54.707031 89.632812 54.492188 C 89.847656 54.277344 90.042969 54.042969 90.210938 53.785156 C 90.382812 53.53125 90.527344 53.265625 90.640625 52.980469 C 90.757812 52.699219 90.847656 52.410156 90.90625 52.109375 C 90.96875 51.808594 90.996094 51.503906 90.996094 51.199219 C 90.996094 50.894531 90.96875 50.589844 90.90625 50.292969 C 90.847656 49.992188 90.757812 49.699219 90.640625 49.417969 C 90.527344 49.136719 90.382812 48.867188 90.210938 48.613281 C 90.042969 48.359375 89.847656 48.125 89.632812 47.90625 C 89.417969 47.691406 89.183594 47.5 88.925781 47.328125 C 88.671875 47.160156 88.40625 47.015625 88.121094 46.898438 C 87.839844 46.78125 87.550781 46.691406 87.25 46.632812 C 86.949219 46.574219 86.644531 46.542969 86.339844 46.542969 Z M 72.371094 51.199219 C 72.371094 50.28125 72.460938 49.375 72.640625 48.476562 C 72.820312 47.574219 73.085938 46.703125 73.433594 45.855469 C 73.785156 45.007812 74.214844 44.203125 74.726562 43.4375 C 75.234375 42.675781 75.816406 41.972656 76.464844 41.324219 C 77.113281 40.675781 77.816406 40.09375 78.578125 39.585938 C 79.34375 39.074219 80.148438 38.644531 80.996094 38.292969 C 81.84375 37.945312 82.714844 37.679688 83.617188 37.5 C 84.515625 37.320312 85.421875 37.230469 86.339844 37.230469 C 87.257812 37.230469 88.167969 37.320312 89.066406 37.5 C 89.964844 37.679688 90.839844 37.945312 91.6875 38.292969 C 92.535156 38.644531 93.339844 39.074219 94.101562 39.585938 C 94.863281 40.09375 95.570312 40.675781 96.21875 41.324219 C 96.867188 41.972656 97.445312 42.675781 97.957031 43.4375 C 98.464844 44.203125 98.894531 45.007812 99.246094 45.855469 C 99.597656 46.703125 99.863281 47.574219 100.042969 48.476562 C 100.21875 49.375 100.308594 50.28125 100.308594 51.199219 C 100.308594 52.117188 100.21875 53.027344 100.042969 53.925781 C 99.863281 54.824219 99.597656 55.699219 99.246094 56.546875 C 98.894531 57.394531 98.464844 58.199219 97.957031 58.960938 C 97.445312 59.722656 96.867188 60.429688 96.21875 61.078125 C 95.570312 61.726562 94.863281 62.304688 94.101562 62.816406 C 93.339844 63.324219 92.535156 63.753906 91.6875 64.105469 C 90.839844 64.457031 89.964844 64.722656 89.066406 64.898438 C 88.167969 65.078125 87.257812 65.167969 86.339844 65.167969 C 85.421875 65.167969 84.515625 65.078125 83.617188 64.898438 C 82.714844 64.722656 81.84375 64.457031 80.996094 64.105469 C 80.148438 63.753906 79.34375 63.324219 78.582031 62.816406 C 77.816406 62.304688 77.113281 61.726562 76.464844 61.078125 C 75.816406 60.429688 75.234375 59.722656 74.726562 58.960938 C 74.214844 58.199219 73.785156 57.394531 73.433594 56.546875 C 73.085938 55.699219 72.820312 54.824219 72.640625 53.925781 C 72.460938 53.027344 72.371094 52.117188 72.371094 51.199219 Z M 89.25 82.664062 L 102.417969 95.835938 L 115.585938 82.664062 L 122.175781 89.25 L 109.003906 102.417969 L 122.175781 115.585938 L 115.585938 122.175781 L 102.417969 109.003906 L 89.25 122.175781 L 82.664062 115.585938 L 95.835938 102.417969 L 82.664062 89.25 Z M 89.25 82.664062 " fill-opacity="1" fill-rule="nonzero"/><g fill="#000000" fill-opacity="1"><g transform="translate(46.91942, 156.635243)"><g><path d="M 5.105469 -1.984375 C 5.105469 -1.421875 5.210938 -1.023438 5.421875 -0.789062 C 5.632812 -0.558594 5.992188 -0.425781 6.507812 -0.402344 L 6.507812 0 L 0.308594 0 L 0.308594 -0.402344 C 0.820312 -0.421875 1.183594 -0.550781 1.394531 -0.785156 C 1.601562 -1.023438 1.707031 -1.421875 1.707031 -1.984375 L 1.707031 -8.945312 C 1.707031 -9.507812 1.601562 -9.90625 1.390625 -10.144531 C 1.175781 -10.378906 0.816406 -10.507812 0.308594 -10.527344 L 0.308594 -10.929688 L 6.507812 -10.929688 L 6.507812 -10.519531 C 5.988281 -10.496094 5.625 -10.367188 5.417969 -10.136719 C 5.210938 -9.902344 5.105469 -9.507812 5.105469 -8.945312 Z M 5.105469 -1.984375 "/></g></g></g><g fill="#000000" fill-opacity="1"><g transform="translate(53.749409, 156.635243)"><g><path d="M 3.871094 -7.859375 L 3.917969 -6.964844 C 4.292969 -7.332031 4.683594 -7.609375 5.089844 -7.792969 C 5.5 -7.980469 5.917969 -8.074219 6.351562 -8.074219 C 6.785156 -8.074219 7.160156 -7.964844 7.476562 -7.75 C 7.789062 -7.535156 8.027344 -7.222656 8.183594 -6.8125 C 8.613281 -7.253906 9.035156 -7.574219 9.449219 -7.773438 C 9.863281 -7.972656 10.308594 -8.074219 10.78125 -8.074219 C 11.476562 -8.074219 11.992188 -7.835938 12.328125 -7.363281 C 12.660156 -6.894531 12.824219 -6.160156 12.824219 -5.167969 L 12.824219 -1.855469 C 12.824219 -1.375 12.894531 -1.023438 13.027344 -0.796875 C 13.160156 -0.574219 13.382812 -0.433594 13.699219 -0.371094 L 13.699219 0 L 9.457031 0 L 9.457031 -0.371094 C 9.6875 -0.4375 9.847656 -0.566406 9.9375 -0.757812 C 10.027344 -0.949219 10.070312 -1.292969 10.070312 -1.785156 L 10.070312 -5.429688 C 10.070312 -5.953125 10.023438 -6.300781 9.929688 -6.46875 C 9.835938 -6.636719 9.667969 -6.71875 9.425781 -6.71875 C 9.25 -6.71875 9.074219 -6.664062 8.902344 -6.554688 C 8.734375 -6.445312 8.5625 -6.277344 8.394531 -6.058594 L 8.394531 -1.707031 C 8.394531 -1.277344 8.441406 -0.964844 8.53125 -0.773438 C 8.617188 -0.582031 8.773438 -0.449219 8.992188 -0.371094 L 8.992188 0 L 5.011719 0 L 5.011719 -0.371094 C 5.238281 -0.433594 5.398438 -0.5625 5.488281 -0.761719 C 5.582031 -0.960938 5.625 -1.304688 5.625 -1.785156 L 5.625 -5.429688 C 5.625 -5.949219 5.582031 -6.292969 5.492188 -6.464844 C 5.402344 -6.632812 5.242188 -6.71875 5.011719 -6.71875 C 4.828125 -6.71875 4.648438 -6.664062 4.46875 -6.554688 C 4.292969 -6.445312 4.117188 -6.277344 3.949219 -6.058594 L 3.949219 -1.707031 C 3.949219 -1.277344 3.996094 -0.964844 4.085938 -0.769531 C 4.179688 -0.578125 4.339844 -0.441406 4.5625 -0.371094 L 4.5625 0 L 0.292969 0 L 0.292969 -0.371094 C 0.617188 -0.449219 0.847656 -0.585938 0.988281 -0.78125 C 1.125 -0.980469 1.195312 -1.265625 1.195312 -1.644531 L 1.195312 -6.167969 C 1.195312 -6.589844 1.125 -6.902344 0.988281 -7.105469 C 0.847656 -7.308594 0.617188 -7.4375 0.292969 -7.492188 L 0.292969 -7.859375 Z M 3.871094 -7.859375 "/></g></g></g><g fill="#000000" fill-opacity="1"><g transform="translate(67.621841, 156.635243)"><g><path d="M 4.738281 -1.644531 L 4.738281 -4.257812 C 4.28125 -4.066406 3.917969 -3.796875 3.65625 -3.441406 C 3.390625 -3.089844 3.257812 -2.710938 3.257812 -2.304688 C 3.257812 -2 3.332031 -1.753906 3.476562 -1.5625 C 3.625 -1.371094 3.8125 -1.273438 4.042969 -1.273438 C 4.179688 -1.273438 4.304688 -1.304688 4.414062 -1.359375 C 4.523438 -1.417969 4.632812 -1.511719 4.738281 -1.644531 Z M 4.832031 -0.96875 C 4.355469 -0.558594 3.917969 -0.261719 3.527344 -0.078125 C 3.136719 0.105469 2.746094 0.195312 2.351562 0.195312 C 1.828125 0.195312 1.394531 0.0234375 1.050781 -0.324219 C 0.707031 -0.667969 0.535156 -1.105469 0.535156 -1.628906 C 0.535156 -2.289062 0.886719 -2.890625 1.585938 -3.425781 C 2.285156 -3.964844 3.335938 -4.4375 4.738281 -4.847656 L 4.738281 -6.492188 C 4.738281 -6.796875 4.660156 -7.035156 4.503906 -7.203125 C 4.351562 -7.375 4.140625 -7.460938 3.871094 -7.460938 C 3.621094 -7.460938 3.414062 -7.40625 3.253906 -7.292969 C 3.09375 -7.183594 3.015625 -7.046875 3.015625 -6.878906 C 3.015625 -6.792969 3.074219 -6.628906 3.199219 -6.386719 C 3.320312 -6.140625 3.382812 -5.9375 3.382812 -5.769531 C 3.382812 -5.433594 3.273438 -5.160156 3.058594 -4.953125 C 2.839844 -4.746094 2.558594 -4.640625 2.210938 -4.640625 C 1.765625 -4.640625 1.410156 -4.765625 1.140625 -5.007812 C 0.875 -5.253906 0.738281 -5.578125 0.738281 -5.980469 C 0.738281 -6.597656 1.0625 -7.101562 1.707031 -7.492188 C 2.351562 -7.878906 3.207031 -8.074219 4.273438 -8.074219 C 5.386719 -8.074219 6.207031 -7.859375 6.738281 -7.4375 C 7.273438 -7.011719 7.539062 -6.351562 7.539062 -5.460938 L 7.539062 -1.738281 C 7.539062 -1.535156 7.566406 -1.382812 7.621094 -1.277344 C 7.675781 -1.175781 7.757812 -1.125 7.859375 -1.125 C 7.914062 -1.125 7.984375 -1.140625 8.070312 -1.175781 C 8.15625 -1.210938 8.257812 -1.257812 8.378906 -1.320312 L 8.609375 -1.046875 C 8.304688 -0.636719 7.984375 -0.328125 7.644531 -0.117188 C 7.304688 0.09375 6.957031 0.195312 6.59375 0.195312 C 6.222656 0.195312 5.882812 0.0976562 5.582031 -0.101562 C 5.28125 -0.300781 5.03125 -0.589844 4.832031 -0.96875 Z M 4.832031 -0.96875 "/></g></g></g><g fill="#000000" fill-opacity="1"><g transform="translate(76.308832, 156.635243)"><g><path d="M 6.136719 1.785156 C 6.136719 1.550781 5.980469 1.355469 5.660156 1.207031 C 5.34375 1.058594 4.917969 0.984375 4.382812 0.984375 C 3.769531 0.984375 3.289062 1.054688 2.945312 1.195312 C 2.601562 1.335938 2.429688 1.535156 2.429688 1.785156 C 2.429688 2.03125 2.597656 2.230469 2.933594 2.382812 C 3.269531 2.535156 3.722656 2.613281 4.289062 2.613281 C 4.855469 2.613281 5.304688 2.535156 5.636719 2.382812 C 5.972656 2.230469 6.136719 2.03125 6.136719 1.785156 Z M 2.257812 -2.675781 C 1.679688 -2.972656 1.253906 -3.320312 0.972656 -3.710938 C 0.691406 -4.101562 0.550781 -4.550781 0.550781 -5.058594 C 0.550781 -5.960938 0.855469 -6.6875 1.460938 -7.234375 C 2.066406 -7.785156 2.875 -8.058594 3.886719 -8.058594 C 4.222656 -8.058594 4.652344 -8.023438 5.175781 -7.960938 C 5.703125 -7.894531 6.054688 -7.859375 6.238281 -7.859375 L 8.136719 -7.859375 L 8.136719 -6.933594 L 7.027344 -6.933594 C 7.257812 -6.660156 7.429688 -6.378906 7.546875 -6.089844 C 7.660156 -5.800781 7.71875 -5.507812 7.71875 -5.210938 C 7.71875 -4.347656 7.421875 -3.65625 6.820312 -3.136719 C 6.222656 -2.613281 5.425781 -2.351562 4.429688 -2.351562 C 4.386719 -2.351562 4.261719 -2.359375 4.050781 -2.367188 C 3.84375 -2.378906 3.652344 -2.382812 3.476562 -2.382812 C 3.167969 -2.382812 2.933594 -2.34375 2.773438 -2.257812 C 2.613281 -2.175781 2.535156 -2.050781 2.535156 -1.886719 C 2.535156 -1.761719 2.589844 -1.65625 2.703125 -1.566406 C 2.816406 -1.476562 2.957031 -1.433594 3.125 -1.433594 L 5.460938 -1.433594 C 6.378906 -1.433594 7.078125 -1.25 7.5625 -0.882812 C 8.042969 -0.515625 8.285156 0.0195312 8.285156 0.722656 C 8.285156 1.554688 7.9375 2.191406 7.242188 2.644531 C 6.546875 3.09375 5.5625 3.320312 4.289062 3.320312 C 3.0625 3.320312 2.105469 3.167969 1.425781 2.867188 C 0.742188 2.566406 0.402344 2.152344 0.402344 1.628906 C 0.402344 1.367188 0.492188 1.144531 0.667969 0.964844 C 0.847656 0.78125 1.113281 0.644531 1.464844 0.550781 C 1.191406 0.347656 0.984375 0.125 0.851562 -0.109375 C 0.714844 -0.347656 0.644531 -0.605469 0.644531 -0.890625 C 0.644531 -1.292969 0.777344 -1.644531 1.046875 -1.941406 C 1.3125 -2.234375 1.71875 -2.480469 2.257812 -2.675781 Z M 4.109375 -3.078125 C 4.402344 -3.078125 4.625 -3.25 4.78125 -3.59375 C 4.933594 -3.9375 5.011719 -4.433594 5.011719 -5.089844 C 5.011719 -5.855469 4.9375 -6.421875 4.792969 -6.785156 C 4.644531 -7.152344 4.417969 -7.332031 4.109375 -7.332031 C 3.804688 -7.332031 3.578125 -7.152344 3.429688 -6.789062 C 3.285156 -6.429688 3.210938 -5.871094 3.210938 -5.121094 C 3.210938 -4.457031 3.285156 -3.949219 3.4375 -3.601562 C 3.589844 -3.25 3.8125 -3.078125 4.109375 -3.078125 Z M 4.109375 -3.078125 "/></g></g></g><g fill="#000000" fill-opacity="1"><g transform="translate(84.594522, 156.635243)"><g><path d="M 7.625 -2.382812 C 7.285156 -1.550781 6.816406 -0.910156 6.222656 -0.46875 C 5.632812 -0.0234375 4.941406 0.195312 4.15625 0.195312 C 3.046875 0.195312 2.148438 -0.183594 1.457031 -0.945312 C 0.761719 -1.703125 0.417969 -2.695312 0.417969 -3.917969 C 0.417969 -4.394531 0.480469 -4.847656 0.601562 -5.269531 C 0.726562 -5.691406 0.90625 -6.078125 1.140625 -6.429688 C 1.488281 -6.9375 1.929688 -7.335938 2.460938 -7.625 C 2.996094 -7.914062 3.566406 -8.058594 4.171875 -8.058594 C 5.203125 -8.058594 6.011719 -7.71875 6.597656 -7.046875 C 7.183594 -6.371094 7.492188 -5.425781 7.523438 -4.210938 L 3.289062 -4.203125 C 3.324219 -3.347656 3.535156 -2.667969 3.914062 -2.167969 C 4.296875 -1.667969 4.789062 -1.417969 5.398438 -1.417969 C 5.734375 -1.417969 6.046875 -1.519531 6.335938 -1.722656 C 6.621094 -1.929688 6.886719 -2.230469 7.121094 -2.628906 Z M 3.273438 -4.839844 L 5.058594 -4.839844 C 5.050781 -5.679688 4.96875 -6.316406 4.820312 -6.753906 C 4.671875 -7.191406 4.453125 -7.414062 4.171875 -7.414062 C 3.890625 -7.414062 3.675781 -7.1875 3.515625 -6.742188 C 3.359375 -6.296875 3.277344 -5.664062 3.273438 -4.839844 Z M 3.273438 -4.839844 "/></g></g></g><g fill="#000000" fill-opacity="1"><g transform="translate(25.246907, 178.889287)"><g><path d="M 3.980469 -6.964844 C 4.355469 -7.332031 4.761719 -7.609375 5.203125 -7.800781 C 5.640625 -7.992188 6.09375 -8.089844 6.5625 -8.089844 C 7.296875 -8.089844 7.84375 -7.851562 8.199219 -7.371094 C 8.554688 -6.894531 8.734375 -6.160156 8.734375 -5.167969 L 8.734375 -1.855469 C 8.734375 -1.371094 8.800781 -1.015625 8.9375 -0.792969 C 9.074219 -0.574219 9.308594 -0.433594 9.640625 -0.371094 L 9.640625 0 L 5.257812 0 L 5.257812 -0.371094 C 5.492188 -0.4375 5.660156 -0.570312 5.757812 -0.769531 C 5.851562 -0.96875 5.902344 -1.308594 5.902344 -1.785156 L 5.902344 -5.429688 C 5.902344 -5.976562 5.851562 -6.332031 5.75 -6.5 C 5.644531 -6.667969 5.457031 -6.75 5.183594 -6.75 C 5.007812 -6.75 4.816406 -6.691406 4.613281 -6.570312 C 4.414062 -6.449219 4.21875 -6.277344 4.027344 -6.058594 L 4.027344 -1.707031 C 4.027344 -1.257812 4.082031 -0.933594 4.1875 -0.742188 C 4.292969 -0.550781 4.476562 -0.425781 4.738281 -0.371094 L 4.738281 0 L 0.292969 0 L 0.292969 -0.371094 C 0.617188 -0.449219 0.847656 -0.585938 0.988281 -0.78125 C 1.125 -0.980469 1.195312 -1.265625 1.195312 -1.644531 L 1.195312 -6.167969 C 1.195312 -6.589844 1.125 -6.902344 0.988281 -7.105469 C 0.847656 -7.308594 0.617188 -7.4375 0.292969 -7.492188 L 0.292969 -7.859375 L 3.933594 -7.859375 Z M 3.980469 -6.964844 "/></g></g></g><g fill="#000000" fill-opacity="1"><g transform="translate(35.011903, 178.889287)"><g><path d="M 3.398438 -3.917969 C 3.398438 -2.519531 3.472656 -1.578125 3.625 -1.101562 C 3.773438 -0.625 4.035156 -0.386719 4.414062 -0.386719 C 4.796875 -0.386719 5.066406 -0.628906 5.21875 -1.117188 C 5.367188 -1.605469 5.445312 -2.539062 5.445312 -3.917969 C 5.445312 -5.296875 5.367188 -6.230469 5.21875 -6.714844 C 5.066406 -7.199219 4.796875 -7.445312 4.414062 -7.445312 C 4.035156 -7.445312 3.773438 -7.210938 3.625 -6.746094 C 3.472656 -6.28125 3.398438 -5.339844 3.398438 -3.917969 Z M 0.402344 -3.933594 C 0.402344 -5.152344 0.773438 -6.144531 1.523438 -6.910156 C 2.269531 -7.675781 3.234375 -8.058594 4.414062 -8.058594 C 5.601562 -8.058594 6.566406 -7.675781 7.308594 -6.914062 C 8.054688 -6.148438 8.425781 -5.15625 8.425781 -3.933594 C 8.425781 -2.710938 8.054688 -1.71875 7.308594 -0.953125 C 6.566406 -0.1875 5.601562 0.195312 4.414062 0.195312 C 3.246094 0.195312 2.285156 -0.191406 1.53125 -0.964844 C 0.777344 -1.738281 0.402344 -2.726562 0.402344 -3.933594 Z M 0.402344 -3.933594 "/></g></g></g><g fill="#000000" fill-opacity="1"><g transform="translate(43.856267, 178.889287)"><g/></g></g><g fill="#000000" fill-opacity="1"><g transform="translate(48.254843, 178.889287)"><g><path d="M 4.738281 -1.644531 L 4.738281 -4.257812 C 4.28125 -4.066406 3.917969 -3.796875 3.65625 -3.441406 C 3.390625 -3.089844 3.257812 -2.710938 3.257812 -2.304688 C 3.257812 -2 3.332031 -1.753906 3.476562 -1.5625 C 3.625 -1.371094 3.8125 -1.273438 4.042969 -1.273438 C 4.179688 -1.273438 4.304688 -1.304688 4.414062 -1.359375 C 4.523438 -1.417969 4.632812 -1.511719 4.738281 -1.644531 Z M 4.832031 -0.96875 C 4.355469 -0.558594 3.917969 -0.261719 3.527344 -0.078125 C 3.136719 0.105469 2.746094 0.195312 2.351562 0.195312 C 1.828125 0.195312 1.394531 0.0234375 1.050781 -0.324219 C 0.707031 -0.667969 0.535156 -1.105469 0.535156 -1.628906 C 0.535156 -2.289062 0.886719 -2.890625 1.585938 -3.425781 C 2.285156 -3.964844 3.335938 -4.4375 4.738281 -4.847656 L 4.738281 -6.492188 C 4.738281 -6.796875 4.660156 -7.035156 4.503906 -7.203125 C 4.351562 -7.375 4.140625 -7.460938 3.871094 -7.460938 C 3.621094 -7.460938 3.414062 -7.40625 3.253906 -7.292969 C 3.09375 -7.183594 3.015625 -7.046875 3.015625 -6.878906 C 3.015625 -6.792969 3.074219 -6.628906 3.199219 -6.386719 C 3.320312 -6.140625 3.382812 -5.9375 3.382812 -5.769531 C 3.382812 -5.433594 3.273438 -5.160156 3.058594 -4.953125 C 2.839844 -4.746094 2.558594 -4.640625 2.210938 -4.640625 C 1.765625 -4.640625 1.410156 -4.765625 1.140625 -5.007812 C 0.875 -5.253906 0.738281 -5.578125 0.738281 -5.980469 C 0.738281 -6.597656 1.0625 -7.101562 1.707031 -7.492188 C 2.351562 -7.878906 3.207031 -8.074219 4.273438 -8.074219 C 5.386719 -8.074219 6.207031 -7.859375 6.738281 -7.4375 C 7.273438 -7.011719 7.539062 -6.351562 7.539062 -5.460938 L 7.539062 -1.738281 C 7.539062 -1.535156 7.566406 -1.382812 7.621094 -1.277344 C 7.675781 -1.175781 7.757812 -1.125 7.859375 -1.125 C 7.914062 -1.125 7.984375 -1.140625 8.070312 -1.175781 C 8.15625 -1.210938 8.257812 -1.257812 8.378906 -1.320312 L 8.609375 -1.046875 C 8.304688 -0.636719 7.984375 -0.328125 7.644531 -0.117188 C 7.304688 0.09375 6.957031 0.195312 6.59375 0.195312 C 6.222656 0.195312 5.882812 0.0976562 5.582031 -0.101562 C 5.28125 -0.300781 5.03125 -0.589844 4.832031 -0.96875 Z M 4.832031 -0.96875 "/></g></g></g><g fill="#000000" fill-opacity="1"><g transform="translate(56.941833, 178.889287)"><g><path d="M 3.109375 0.195312 L 0.566406 -6.476562 C 0.445312 -6.796875 0.316406 -7.035156 0.175781 -7.191406 C 0.0390625 -7.347656 -0.128906 -7.449219 -0.324219 -7.492188 L -0.324219 -7.859375 L 3.980469 -7.859375 L 3.980469 -7.492188 C 3.789062 -7.445312 3.644531 -7.371094 3.550781 -7.277344 C 3.460938 -7.183594 3.414062 -7.0625 3.414062 -6.917969 C 3.414062 -6.855469 3.421875 -6.785156 3.4375 -6.707031 C 3.453125 -6.632812 3.476562 -6.542969 3.507812 -6.445312 L 4.5625 -3.675781 L 5.445312 -6.277344 C 5.472656 -6.375 5.492188 -6.460938 5.503906 -6.539062 C 5.515625 -6.617188 5.523438 -6.695312 5.523438 -6.765625 C 5.523438 -6.957031 5.476562 -7.109375 5.382812 -7.222656 C 5.289062 -7.339844 5.132812 -7.429688 4.917969 -7.492188 L 4.917969 -7.859375 L 7.167969 -7.859375 L 7.167969 -7.492188 C 6.933594 -7.460938 6.71875 -7.320312 6.523438 -7.070312 C 6.328125 -6.820312 6.152344 -6.457031 5.996094 -5.980469 L 3.902344 0.195312 Z M 3.109375 0.195312 "/></g></g></g><g fill="#000000" fill-opacity="1"><g transform="translate(63.858378, 178.889287)"><g><path d="M 4.738281 -1.644531 L 4.738281 -4.257812 C 4.28125 -4.066406 3.917969 -3.796875 3.65625 -3.441406 C 3.390625 -3.089844 3.257812 -2.710938 3.257812 -2.304688 C 3.257812 -2 3.332031 -1.753906 3.476562 -1.5625 C 3.625 -1.371094 3.8125 -1.273438 4.042969 -1.273438 C 4.179688 -1.273438 4.304688 -1.304688 4.414062 -1.359375 C 4.523438 -1.417969 4.632812 -1.511719 4.738281 -1.644531 Z M 4.832031 -0.96875 C 4.355469 -0.558594 3.917969 -0.261719 3.527344 -0.078125 C 3.136719 0.105469 2.746094 0.195312 2.351562 0.195312 C 1.828125 0.195312 1.394531 0.0234375 1.050781 -0.324219 C 0.707031 -0.667969 0.535156 -1.105469 0.535156 -1.628906 C 0.535156 -2.289062 0.886719 -2.890625 1.585938 -3.425781 C 2.285156 -3.964844 3.335938 -4.4375 4.738281 -4.847656 L 4.738281 -6.492188 C 4.738281 -6.796875 4.660156 -7.035156 4.503906 -7.203125 C 4.351562 -7.375 4.140625 -7.460938 3.871094 -7.460938 C 3.621094 -7.460938 3.414062 -7.40625 3.253906 -7.292969 C 3.09375 -7.183594 3.015625 -7.046875 3.015625 -6.878906 C 3.015625 -6.792969 3.074219 -6.628906 3.199219 -6.386719 C 3.320312 -6.140625 3.382812 -5.9375 3.382812 -5.769531 C 3.382812 -5.433594 3.273438 -5.160156 3.058594 -4.953125 C 2.839844 -4.746094 2.558594 -4.640625 2.210938 -4.640625 C 1.765625 -4.640625 1.410156 -4.765625 1.140625 -5.007812 C 0.875 -5.253906 0.738281 -5.578125 0.738281 -5.980469 C 0.738281 -6.597656 1.0625 -7.101562 1.707031 -7.492188 C 2.351562 -7.878906 3.207031 -8.074219 4.273438 -8.074219 C 5.386719 -8.074219 6.207031 -7.859375 6.738281 -7.4375 C 7.273438 -7.011719 7.539062 -6.351562 7.539062 -5.460938 L 7.539062 -1.738281 C 7.539062 -1.535156 7.566406 -1.382812 7.621094 -1.277344 C 7.675781 -1.175781 7.757812 -1.125 7.859375 -1.125 C 7.914062 -1.125 7.984375 -1.140625 8.070312 -1.175781 C 8.15625 -1.210938 8.257812 -1.257812 8.378906 -1.320312 L 8.609375 -1.046875 C 8.304688 -0.636719 7.984375 -0.328125 7.644531 -0.117188 C 7.304688 0.09375 6.957031 0.195312 6.59375 0.195312 C 6.222656 0.195312 5.882812 0.0976562 5.582031 -0.101562 C 5.28125 -0.300781 5.03125 -0.589844 4.832031 -0.96875 Z M 4.832031 -0.96875 "/></g></g></g><g fill="#000000" fill-opacity="1"><g transform="translate(72.545369, 178.889287)"><g><path d="M 1.15625 -10.039062 C 1.15625 -10.433594 1.292969 -10.769531 1.570312 -11.042969 C 1.84375 -11.320312 2.183594 -11.457031 2.582031 -11.457031 C 2.972656 -11.457031 3.308594 -11.320312 3.585938 -11.042969 C 3.859375 -10.769531 3.996094 -10.433594 3.996094 -10.039062 C 3.996094 -9.648438 3.859375 -9.3125 3.582031 -9.039062 C 3.300781 -8.761719 2.96875 -8.625 2.582031 -8.625 C 2.199219 -8.625 1.863281 -8.765625 1.582031 -9.050781 C 1.296875 -9.332031 1.15625 -9.664062 1.15625 -10.039062 Z M 4.1875 -7.859375 L 4.1875 -1.644531 C 4.1875 -1.265625 4.257812 -0.980469 4.398438 -0.78125 C 4.539062 -0.585938 4.769531 -0.449219 5.089844 -0.371094 L 5.089844 0 L 0.386719 0 L 0.386719 -0.371094 C 0.710938 -0.449219 0.941406 -0.585938 1.082031 -0.78125 C 1.222656 -0.980469 1.289062 -1.265625 1.289062 -1.644531 L 1.289062 -6.167969 C 1.289062 -6.589844 1.222656 -6.902344 1.082031 -7.105469 C 0.941406 -7.308594 0.710938 -7.4375 0.386719 -7.492188 L 0.386719 -7.859375 Z M 4.1875 -7.859375 "/></g></g></g><g fill="#000000" fill-opacity="1"><g transform="translate(77.896051, 178.889287)"><g><path d="M 1.289062 -9.238281 C 1.289062 -9.65625 1.222656 -9.96875 1.082031 -10.171875 C 0.941406 -10.371094 0.710938 -10.5 0.386719 -10.550781 L 0.386719 -10.929688 L 4.1875 -10.929688 L 4.1875 -1.644531 C 4.1875 -1.265625 4.257812 -0.980469 4.398438 -0.78125 C 4.539062 -0.585938 4.769531 -0.449219 5.089844 -0.371094 L 5.089844 0 L 0.386719 0 L 0.386719 -0.371094 C 0.710938 -0.449219 0.941406 -0.585938 1.082031 -0.78125 C 1.222656 -0.980469 1.289062 -1.265625 1.289062 -1.644531 Z M 1.289062 -9.238281 "/></g></g></g><g fill="#000000" fill-opacity="1"><g transform="translate(83.246734, 178.889287)"><g><path d="M 4.738281 -1.644531 L 4.738281 -4.257812 C 4.28125 -4.066406 3.917969 -3.796875 3.65625 -3.441406 C 3.390625 -3.089844 3.257812 -2.710938 3.257812 -2.304688 C 3.257812 -2 3.332031 -1.753906 3.476562 -1.5625 C 3.625 -1.371094 3.8125 -1.273438 4.042969 -1.273438 C 4.179688 -1.273438 4.304688 -1.304688 4.414062 -1.359375 C 4.523438 -1.417969 4.632812 -1.511719 4.738281 -1.644531 Z M 4.832031 -0.96875 C 4.355469 -0.558594 3.917969 -0.261719 3.527344 -0.078125 C 3.136719 0.105469 2.746094 0.195312 2.351562 0.195312 C 1.828125 0.195312 1.394531 0.0234375 1.050781 -0.324219 C 0.707031 -0.667969 0.535156 -1.105469 0.535156 -1.628906 C 0.535156 -2.289062 0.886719 -2.890625 1.585938 -3.425781 C 2.285156 -3.964844 3.335938 -4.4375 4.738281 -4.847656 L 4.738281 -6.492188 C 4.738281 -6.796875 4.660156 -7.035156 4.503906 -7.203125 C 4.351562 -7.375 4.140625 -7.460938 3.871094 -7.460938 C 3.621094 -7.460938 3.414062 -7.40625 3.253906 -7.292969 C 3.09375 -7.183594 3.015625 -7.046875 3.015625 -6.878906 C 3.015625 -6.792969 3.074219 -6.628906 3.199219 -6.386719 C 3.320312 -6.140625 3.382812 -5.9375 3.382812 -5.769531 C 3.382812 -5.433594 3.273438 -5.160156 3.058594 -4.953125 C 2.839844 -4.746094 2.558594 -4.640625 2.210938 -4.640625 C 1.765625 -4.640625 1.410156 -4.765625 1.140625 -5.007812 C 0.875 -5.253906 0.738281 -5.578125 0.738281 -5.980469 C 0.738281 -6.597656 1.0625 -7.101562 1.707031 -7.492188 C 2.351562 -7.878906 3.207031 -8.074219 4.273438 -8.074219 C 5.386719 -8.074219 6.207031 -7.859375 6.738281 -7.4375 C 7.273438 -7.011719 7.539062 -6.351562 7.539062 -5.460938 L 7.539062 -1.738281 C 7.539062 -1.535156 7.566406 -1.382812 7.621094 -1.277344 C 7.675781 -1.175781 7.757812 -1.125 7.859375 -1.125 C 7.914062 -1.125 7.984375 -1.140625 8.070312 -1.175781 C 8.15625 -1.210938 8.257812 -1.257812 8.378906 -1.320312 L 8.609375 -1.046875 C 8.304688 -0.636719 7.984375 -0.328125 7.644531 -0.117188 C 7.304688 0.09375 6.957031 0.195312 6.59375 0.195312 C 6.222656 0.195312 5.882812 0.0976562 5.582031 -0.101562 C 5.28125 -0.300781 5.03125 -0.589844 4.832031 -0.96875 Z M 4.832031 -0.96875 "/></g></g></g><g fill="#000000" fill-opacity="1"><g transform="translate(91.933725, 178.889287)"><g><path d="M 3.738281 -7.167969 C 3.996094 -7.46875 4.28125 -7.691406 4.59375 -7.835938 C 4.910156 -7.984375 5.257812 -8.058594 5.640625 -8.058594 C 6.480469 -8.058594 7.175781 -7.683594 7.726562 -6.941406 C 8.277344 -6.195312 8.554688 -5.246094 8.554688 -4.089844 C 8.554688 -2.820312 8.21875 -1.789062 7.546875 -0.996094 C 6.875 -0.199219 6.007812 0.195312 4.949219 0.195312 C 4.539062 0.195312 4.152344 0.117188 3.78125 -0.0390625 C 3.410156 -0.195312 3.054688 -0.433594 2.707031 -0.753906 L 1.613281 0.078125 L 0.90625 0.078125 L 0.90625 -9.285156 C 0.90625 -9.667969 0.835938 -9.957031 0.699219 -10.152344 C 0.5625 -10.34375 0.335938 -10.476562 0.015625 -10.550781 L 0.015625 -10.929688 L 3.738281 -10.929688 Z M 3.738281 -6.320312 L 3.738281 -1.832031 C 3.738281 -1.414062 3.800781 -1.09375 3.921875 -0.878906 C 4.046875 -0.660156 4.226562 -0.550781 4.460938 -0.550781 C 4.839844 -0.550781 5.117188 -0.804688 5.296875 -1.3125 C 5.472656 -1.824219 5.5625 -2.621094 5.5625 -3.707031 C 5.5625 -4.832031 5.484375 -5.640625 5.324219 -6.128906 C 5.164062 -6.617188 4.90625 -6.863281 4.546875 -6.863281 C 4.386719 -6.863281 4.234375 -6.8125 4.089844 -6.71875 C 3.949219 -6.625 3.832031 -6.492188 3.738281 -6.320312 Z M 3.738281 -6.320312 "/></g></g></g><g fill="#000000" fill-opacity="1"><g transform="translate(100.911856, 178.889287)"><g><path d="M 1.289062 -9.238281 C 1.289062 -9.65625 1.222656 -9.96875 1.082031 -10.171875 C 0.941406 -10.371094 0.710938 -10.5 0.386719 -10.550781 L 0.386719 -10.929688 L 4.1875 -10.929688 L 4.1875 -1.644531 C 4.1875 -1.265625 4.257812 -0.980469 4.398438 -0.78125 C 4.539062 -0.585938 4.769531 -0.449219 5.089844 -0.371094 L 5.089844 0 L 0.386719 0 L 0.386719 -0.371094 C 0.710938 -0.449219 0.941406 -0.585938 1.082031 -0.78125 C 1.222656 -0.980469 1.289062 -1.265625 1.289062 -1.644531 Z M 1.289062 -9.238281 "/></g></g></g><g fill="#000000" fill-opacity="1"><g transform="translate(106.262539, 178.889287)"><g><path d="M 7.625 -2.382812 C 7.285156 -1.550781 6.816406 -0.910156 6.222656 -0.46875 C 5.632812 -0.0234375 4.941406 0.195312 4.15625 0.195312 C 3.046875 0.195312 2.148438 -0.183594 1.457031 -0.945312 C 0.761719 -1.703125 0.417969 -2.695312 0.417969 -3.917969 C 0.417969 -4.394531 0.480469 -4.847656 0.601562 -5.269531 C 0.726562 -5.691406 0.90625 -6.078125 1.140625 -6.429688 C 1.488281 -6.9375 1.929688 -7.335938 2.460938 -7.625 C 2.996094 -7.914062 3.566406 -8.058594 4.171875 -8.058594 C 5.203125 -8.058594 6.011719 -7.71875 6.597656 -7.046875 C 7.183594 -6.371094 7.492188 -5.425781 7.523438 -4.210938 L 3.289062 -4.203125 C 3.324219 -3.347656 3.535156 -2.667969 3.914062 -2.167969 C 4.296875 -1.667969 4.789062 -1.417969 5.398438 -1.417969 C 5.734375 -1.417969 6.046875 -1.519531 6.335938 -1.722656 C 6.621094 -1.929688 6.886719 -2.230469 7.121094 -2.628906 Z M 3.273438 -4.839844 L 5.058594 -4.839844 C 5.050781 -5.679688 4.96875 -6.316406 4.820312 -6.753906 C 4.671875 -7.191406 4.453125 -7.414062 4.171875 -7.414062 C 3.890625 -7.414062 3.675781 -7.1875 3.515625 -6.742188 C 3.359375 -6.296875 3.277344 -5.664062 3.273438 -4.839844 Z M 3.273438 -4.839844 "/></g></g></g></svg>